<?xml version="1.0" encoding="UTF-8"?>
<svg id="Layer_2" data-name="Layer 2" xmlns="http://www.w3.org/2000/svg" viewBox="0 0 1109.74 814.09">
  <defs>
    <style>
      .cls-1 {
        fill: none;
      }

      .cls-2 {
        fill: #fff;
      }
    </style>
  </defs>
  <g id="Layer_1-2" data-name="Layer 1">
    <g>
      <g id="_2z1mJq" data-name="2z1mJq">
        <g>
          <path class="cls-2" d="M755.77,458.81c4.84,2.82,19-9.94,22.79-13.44,20.11-18.59,26.64-37.68,41.81-57.08,4.93-6.31,15.02-14.63,21.22-20.04,19.12-16.71,42.8-9.44,52.17,13.25,1.53,3.7.07,9.18,4.93,9.57,8.67.69,32.17-13.93,39.63-19.46,4.54-3.36,9.08-13.39,15.49-7.67,9.14,8.18-8.35,22.65-14.76,27.5-13.13,9.95-27.56,15.35-43.14,20.27-7.6,30.1-29.59,68.82-66.13,64.01-13.78-1.81-24.2-18.2-25.01-31.38-15.19,14.75-35.84,44.35-60.28,37.76-10.56-2.85-16.7-14.5-15.96-24.88-1.8-1.92-15.54,15.11-17.91,16.93-14.76,11.43-35.38,11.1-43.16-7.89l-4.89-24.99c-8.04,21.42-32.58,60.48-59.01,57.04-12.6-1.64-19.36-10.63-20.71-22.72-13.68,17-44.59,28.68-53.63,1.03-1.13-3.47,1.35-10.1-3.48-8.78-7.6,17.13-26.5,44.77-47.88,43.52-14.14-.82-23.59-11.22-24.62-25.11-12.09,19.06-36.58,54.42-62.89,45.73-24.88-8.21-16.63-52.37-12.62-71.86,1.69-8.22,5.55-17.07,5.33-25.18l-45.33,22.36c-.4,2.06,5.59,6.15,7.2,8.46,23.2,33.36-24.36,70.52-50.01,84.63-24.34,13.38-83.19,35.4-108.69,21.72-38.34-20.58,21.82-65.91,40.83-76.35l56.89-32.84c-31.72-7.37-88.38,2.01-115.02-16.95-48.28-34.37,32.5-86.9,60.22-101.56,32.29-17.07,122.56-52.6,151.56-20.72,9.93,10.92,7.12,31.53-7.31,25.61-5.59-2.29-5.38-12.97-19.71-14.17-44.49-3.72-121.24,29.94-153.34,60.61-29.03,27.74-12.63,33.06,19.37,36.77,27.49,3.18,53.26,3.09,81.06,8.54,5.16,1.01,11.75,4.23,16.3,4.67,6.84.67,32.18-12.97,40.53-16.58,7-3.02,28.88-9.17,32.59-13.61,1.96-2.35,9.92-25.37,8.86-26.68-8.12,4.52-45.56,11.69-37.91-7.04,3.38-8.26,40.06-11.52,48.34-16.84,9.05-16.89,15.75-36.15,26.73-51.89,4.93-7.07,10.75-17.62,21.18-11.58,14.49,8.39-12.27,45.64-14,57.22,14.44-1.6,28.69-5.38,43.07-7.32,11.46-1.55,25.38-3.48,36.72-4.32,6.48-.48,33.62-3.87,30.73,7.83-4.11,5.98-14.95,6.91-21.96,8.5-32.67,7.38-66.58,10.38-98.99,19.19-11.65,27.54-23.67,58.06-29.75,87.41-1.79,8.64-11.23,47.11,7.2,38.13,11.43-5.57,34.92-39.43,42.18-51.26,7.02-11.44,20.82-45.64,28.85-51.3,7.88-5.56,22.72-5.53,22.25,6.79-8.61,24.27-25.1,47.05-21.26,74.17,7.16,6.86,36.18-38.65,39.27-43.69,4.8-7.84,14.4-32.36,22.51-33.94,33.16-6.44-2.47,51.83,9.93,60.05,7.39,4.9,24.32-14.98,28.46-20.35,8.63-11.2,13.03-24.38,22.1-35.65,14.09-17.49,41.66-37.19,63.12-20.23,7.08-19.48,12.66-39.54,19.8-59,5.16-14.07,22.9-63.51,32.79-70.91,13.33-9.98,19.54,1.45,17.7,15.03-3.9,28.84-28.1,75.42-36.88,106.8-3.54,12.63-7.45,28-8.98,40.96-.8,6.84-4.69,32.37,5.64,31.37,8.52-.83,28.62-29.71,33.22-37.81,7.43-13.06,14.05-47.4,34.7-38.39,5.3,2.31,6.12,6.01,5.8,11.53-.58,10.06-12.61,32.42-15.31,44.71-.85,3.86-3.85,19.82-.48,21.78ZM872.44,393.41c1.03-6.61-5.89-20.14-13.41-14.48-6.54,4.92,8.42,14.49,13.41,14.48ZM648.03,406.61c-16.81,4.26-33.38,34.83-36.75,50.82-5.67,26.87,11.86,10.57,20.57-.11,5.37-6.58,26.93-41.33,26.63-47.95-.21-4.68-7.33-3.55-10.46-2.76ZM870.33,411.97c-11.4,1.09-20.66-6.34-28.91-13.11-6.58,9.38-20.1,49.86-3.7,53.55,12.84,2.88,31.79-29.24,32.61-40.44ZM199.26,551.35c4.26,5.47,32.01-2.3,38.75-4.37,23.96-7.35,67.29-29.55,81.29-50.63,8.26-12.44,5.6-23.77-9.85-25.69-32.46,18.51-69.83,36.3-97.43,61.83-2.78,2.57-15.64,15.18-12.77,18.85Z"/>
          <path class="cls-2" d="M930.28,429.86c33.44-9.01,20.21,36.06-1.76,35.38-19.81-.61-11.72-31.75,1.76-35.38Z"/>
          <path class="cls-2" d="M772.94,327.89c6.2-1.44,14.91,1.09,17.12,7.53,2.84,8.28-7.99,24.47-16.25,26.16-25.37,5.18-18.7-29.55-.87-33.69Z"/>
        </g>
      </g>
      <g>
        <polygon class="cls-1" points="736.38 100.53 724.09 100.53 705.39 229.79 754.09 229.79 736.38 100.53"/>
        <path class="cls-2" d="M182.01,104.4h63.95V0H0v104.4h67.88v265.69h102.78c3.69-3.4,7.51-6.65,11.34-9.69V104.4Z"/>
        <path class="cls-2" d="M379.75,306.97v-66.13h64.44v47.63c6.25-2.2,13.06-1.48,19.43,2.21,5.57,3.22,14.12,11.5,8.83,30.72-1.92,6.97-5.26,14.37-8.57,21.26.17-.03.35-.07.52-.1,6.6-1.28,13.43-2.61,20.36-3.54l2.3-.31c11.34-1.54,24.2-3.28,35.17-4.09.48-.04,1.08-.09,1.79-.15,12.24-1.07,25.65-1.64,34.3,3.94V0h-114.12v136.44h-64.44V0h-114.12v314.89c11.95-4.36,24.85-8.39,37.68-11.37,33.89-7.88,59.52-6.71,76.44,3.45Z"/>
        <path class="cls-2" d="M675.83,329.43l.77-2.11c17.16-46.93,27.33-67.82,36.26-74.51,12.49-9.35,22-6.26,26.55-3.58,8.78,5.16,12.9,16.48,11.03,30.3-1.87,13.84-7.74,30.72-14.48,48.03h16.48c4.35-5.7,10.36-10.15,17.67-11.84,11.76-2.73,27.26,2.48,31.77,15.66,2.39,6.97.96,15.59-4.01,24.28-1.52,2.67-6.05,9.82-12.93,14.43h35.61c3.25-3,6.64-5.93,9.68-8.55,1.11-.96,2.16-1.87,3.12-2.7,11.92-10.42,26.09-14.38,39.88-11.14,4.96,1.16,9.6,3.24,13.83,6.07L816.07,0h-172.66l-72.8,370.09h91.68c1.1-3.39,2.2-6.77,3.27-10.11,3.22-10.02,6.55-20.39,10.27-30.55ZM724.09,100.53h12.3l17.71,129.25h-48.7l18.69-129.25Z"/>
        <path class="cls-2" d="M948.9,349.73c3.32-.2,8.32.48,13.23,4.88,4.54,4.06,6.92,9.54,6.74,15.47h76.92V104.4h63.95V0h-245.96v104.4h67.88v256.3c.34-.37.7-.78.99-1.11,3.28-3.73,8.23-9.37,16.24-9.86Z"/>
      </g>
      <g>
        <path class="cls-1" d="M645.14,667.71h-26.56v60.76h26.56c11.47,0,19.18-2.11,23.12-6.35,3.94-4.23,5.9-12.15,5.9-23.75s-2.14-19.61-6.39-24.03c-4.27-4.42-11.81-6.63-22.63-6.63Z"/>
        <path class="cls-2" d="M244.15,583.49c-11.47,3-21.81,4.73-31.02,5.25l-9.22,96.09h-8.85l-10.6-99.81c-1.44-.58-2.83-1.19-4.15-1.9-15.73-8.44-19.07-20.18-19.12-28.54-.05-10.7,5.44-22.37,16.33-34.79l-6.17-58.11c-3.44-1.57-6.68-3.4-9.69-5.54-5.51-3.92-9.6-8.03-12.61-12.15H48.46l66.9,370.09h168.23l47.69-273.9c-12.69,10.96-25.18,18.31-30.36,21.15-11.71,6.44-33.6,16.1-56.78,22.15Z"/>
        <path class="cls-2" d="M450.97,511.6c-12.29,15.99-30.69,34.26-52.25,34.27-4,0-8.09-.63-12.29-2.01-10.87-3.59-23.98-13.66-25.61-41.09v311.33h114.12v-290.44c-9.6-1.07-17.93-5.42-23.97-12.05Z"/>
        <path class="cls-2" d="M741.22,494.16c-7.83-2.11-14.45-7.25-18.95-14.05-1.81,1.97-2.88,3.05-4.01,3.92-11.58,8.96-25.87,12.34-38.23,9.03-9.29-2.49-16.88-8.52-21.8-17.2-12.18,17.81-29.91,35.17-51.2,35.18-1.68,0-3.38-.11-5.1-.33-10.39-1.35-18.74-6.28-24.29-13.95-10,6.48-22.21,10.51-34.1,8.34-7.5-1.37-13.86-5.08-18.71-10.78-2.55,3.56-5.47,7.21-8.77,10.72-3.77,4.02-7.66,7.41-11.62,10.17v298.88h151.02c84.61,0,126.91-34.98,126.91-104.95,0-26.14-3.04-44.83-9.1-56.07-6.07-11.23-17.14-20.71-33.2-28.45,13.77-11.05,22.87-22.83,27.3-35.35,4.43-12.51,6.64-30.38,6.64-53.58,0-16.36-2.88-30.52-8.63-42.5-4.34,1.51-8.89,2.39-13.65,2.39-3.4,0-6.9-.44-10.51-1.42ZM618.57,528.51h25.09c9.51,0,16.39,2.21,20.66,6.63,4.26,4.42,6.39,11.88,6.39,22.37s-1.97,18.14-5.9,22.92c-3.93,4.79-10.82,7.18-20.66,7.18h-25.58v-59.1ZM668.25,722.12c-3.93,4.24-11.64,6.35-23.12,6.35h-26.56v-60.76h26.56c10.82,0,18.36,2.21,22.63,6.63,4.26,4.42,6.39,12.43,6.39,24.03s-1.97,19.52-5.9,23.75Z"/>
        <path class="cls-2" d="M883.17,464.93c-15.33,17.88-34.36,25.89-55.04,23.17-9.43-1.24-18.3-6.74-25.1-15.5v341.48h246.94v-102.19h-132.82v-33.14h103.3v-101.08h-103.3v-31.49h132.82v-102.19h-87.1c-.44,4.24-1.72,8.65-3.85,12.99-6.33,12.88-17.76,20.76-30,20.76-.29,0-.59,0-.88-.01-12.94-.4-22.27-8.98-23.77-21.85-.44-3.78-.17-7.85.73-11.88h-8.06c-3.61,7.03-8.15,14.27-13.87,20.93Z"/>
      </g>
    </g>
  </g>
</svg>