<?xml version="1.0" encoding="UTF-8"?>
<svg id="Layer_2" data-name="Layer 2" xmlns="http://www.w3.org/2000/svg" viewBox="0 0 684.76 367.79">
  <defs>
    <style>
      .cls-1 {
        fill: #d2ff00;
      }

      .cls-2 {
        fill: #5564ff;
      }
    </style>
  </defs>
  <g id="Layer_1-2" data-name="Layer 1">
    <g>
      <g>
        <path class="cls-2" d="M120.89,190.57l-24.71,3.7c-2.04.31-4.05.32-6,.09-.48.11-.97.19-1.46.27l-20.66,3.1c-.46.07-.93.12-1.39.16-1.79.79-3.71,1.36-5.74,1.67l-24.71,3.7c-12.15,1.82-23.47-6.55-25.29-18.7L.25,113.2c-1.82-12.15,6.55-23.47,18.7-25.29l36.74-5.5c1.73-.26,3.46-.31,5.15-.17,1.57-.63,3.24-1.08,4.97-1.34l37.81-5.66c12.15-1.82,23.47,6.55,25.29,18.7l10.69,71.36c1.82,12.15-6.55,23.47-18.7,25.29Z"/>
        <path class="cls-2" d="M192.78,179.8l-24.92,3.73c-3.57.54-7.12.19-10.37-.91-2.79,2-6.07,3.37-9.65,3.91l-24.28,3.64c-6.67,1-13.42-1.08-18.38-5.65-4.95-4.57-7.56-11.14-7.1-17.87l5.07-73.72c.72-10.41,8.57-18.92,18.89-20.46l37.38-5.6c10.28-1.54,20.26,4.25,24.02,13.94l26.77,68.95c2.45,6.3,1.89,13.37-1.5,19.21-3.39,5.84-9.26,9.83-15.94,10.83Z"/>
        <path class="cls-2" d="M257.86,170.05l-24.81,3.72c-2.24.34-4.47.32-6.64,0-1.96.94-4.09,1.61-6.36,1.95l-24.71,3.7c-12.15,1.82-23.47-6.55-25.29-18.7l-10.69-71.36c-1.82-12.15,6.55-23.47,18.7-25.29l24.71-3.7c2.13-.32,4.23-.32,6.26-.05,1.87-.86,3.88-1.47,5.99-1.78l24.5-3.67c7.06-1.06,14.19,1.34,19.19,6.44,4.99,5.1,7.23,12.29,6.02,19.32l-4.97,28.89,14.58,28.37c3.28,6.37,3.28,13.93.01,20.31-3.27,6.38-9.41,10.79-16.49,11.85Z"/>
        <path class="cls-2" d="M313.66,161.69l-53.46,8.01c-12.15,1.82-23.47-6.55-25.29-18.7l-10.69-71.36c-1.82-12.15,6.55-23.47,18.7-25.29l53.46-8.01c12.15-1.82,23.47,6.55,25.29,18.7l2.95,19.7c.91,6.05-.71,11.89-4.07,16.46l.14.95c4.55,3.38,7.81,8.49,8.71,14.54l2.95,19.7c1.82,12.15-6.55,23.47-18.7,25.29Z"/>
        <rect class="cls-2" x="310.55" y="39.68" width="69.46" height="116.62" rx="22.24" ry="22.24" transform="translate(-10.71 52.24) rotate(-8.52)"/>
        <path class="cls-2" d="M409.84,147.28l-24.71,3.7c-12.15,1.82-23.47-6.55-25.29-18.7l-4.57-30.47c-9.01-1.73-16.37-8.96-17.81-18.55l-3.02-20.13c-1.82-12.15,6.55-23.47,18.7-25.29l53.25-7.98c12.15-1.82,23.47,6.55,25.29,18.7l3.02,20.13c1.39,9.27-3.16,18.05-10.78,22.51l4.61,30.79c1.82,12.15-6.55,23.47-18.7,25.29Z"/>
        <path class="cls-2" d="M475.55,137.44l-24.71,3.7c-12.15,1.82-23.47-6.55-25.29-18.7l-10.69-71.36c-1.82-12.15,6.55-23.47,18.7-25.29l28.01-4.2c11.34-1.7,26.01-2.74,38.94,4.35,12.51,6.86,20.21,19.4,22.89,37.3,2.66,17.78-.89,32.03-10.57,42.37-3.38,3.61-8.66,8.2-18.42,11.82-.89,9.99-8.5,18.45-18.86,20ZM462.14,66.49l1.86,12.42c.87-.24,1.77-.44,2.69-.57l-1.84-12.25-2.72.41Z"/>
        <path class="cls-2" d="M548.07,127.99c-18.09,2.71-32.99-.51-44.29-9.57-10.98-8.8-17.69-22.25-20.52-41.1s-.4-33.66,7.41-45.23c8.11-12,21.47-19.48,39.71-22.21,18.24-2.73,33.2.5,44.47,9.6,10.86,8.77,17.51,22.2,20.34,41.07,2.83,18.87.4,33.66-7.41,45.23-8.11,12.01-21.47,19.48-39.71,22.21ZM529.13,70.41c2.98,2.41,7.1,4.03,10.83,3.47s7.27-3.32,9.44-6.48c-2.99-2.38-7.16-3.99-10.92-3.43s-7.19,3.29-9.35,6.43Z"/>
        <path class="cls-2" d="M611.45,117.08l-24.71,3.7c-12.15,1.82-23.47-6.55-25.29-18.7l-10.69-71.36c-1.82-12.15,6.55-23.47,18.7-25.29l28.01-4.2c11.34-1.7,26.01-2.74,38.94,4.35,12.51,6.86,20.21,19.4,22.89,37.3s-.89,32.03-10.57,42.37c-3.38,3.61-8.66,8.2-18.42,11.82-.89,9.99-8.5,18.45-18.86,20ZM598.04,46.13l1.86,12.42c.87-.24,1.77-.44,2.69-.57l-1.84-12.25-2.72.41Z"/>
      </g>
      <g>
        <path class="cls-2" d="M133.31,273.43l-24.71,3.7c-2.04.3-4.05.32-6,.09-.48.11-.97.19-1.46.27l-20.66,3.1c-.46.07-.93.12-1.39.16-1.79.79-3.71,1.36-5.74,1.67l-24.71,3.7c-12.15,1.82-23.47-6.55-25.29-18.7l-10.69-71.36c-1.82-12.15,6.55-23.47,18.7-25.29l36.74-5.5c1.73-.26,3.46-.31,5.15-.17,1.57-.63,3.24-1.08,4.97-1.34l37.81-5.66c12.15-1.82,23.47,6.55,25.29,18.7l10.69,71.36c1.82,12.15-6.55,23.47-18.7,25.29Z"/>
        <path class="cls-2" d="M205.2,262.66l-24.92,3.73c-3.57.54-7.12.19-10.37-.91-2.79,2-6.07,3.37-9.65,3.91l-24.28,3.64c-6.67,1-13.42-1.08-18.38-5.65-4.95-4.57-7.56-11.14-7.1-17.87l5.07-73.72c.72-10.41,8.57-18.92,18.89-20.46l37.38-5.6c10.28-1.54,20.26,4.25,24.02,13.94l26.77,68.95c2.45,6.3,1.89,13.37-1.5,19.21-3.39,5.84-9.26,9.83-15.94,10.83Z"/>
        <path class="cls-2" d="M270.27,252.91l-24.81,3.72c-2.24.34-4.47.32-6.64,0-1.96.94-4.09,1.61-6.36,1.95l-24.71,3.7c-12.15,1.82-23.47-6.55-25.29-18.7l-10.69-71.36c-1.82-12.15,6.55-23.47,18.7-25.29l24.71-3.7c2.13-.32,4.23-.32,6.26-.05,1.87-.86,3.88-1.47,5.99-1.78l24.5-3.67c7.06-1.06,14.19,1.34,19.19,6.44,4.99,5.1,7.23,12.29,6.02,19.32l-4.97,28.89,14.58,28.37c3.28,6.37,3.28,13.93.01,20.31-3.27,6.38-9.41,10.79-16.49,11.85Z"/>
        <path class="cls-2" d="M326.08,244.55l-53.46,8.01c-12.15,1.82-23.47-6.55-25.29-18.7l-10.69-71.36c-1.82-12.15,6.55-23.47,18.7-25.29l53.46-8.01c12.15-1.82,23.47,6.55,25.29,18.7l2.95,19.7c.91,6.05-.71,11.89-4.07,16.46l.14.95c4.55,3.38,7.81,8.49,8.71,14.54l2.95,19.7c1.82,12.15-6.55,23.47-18.7,25.29Z"/>
        <rect class="cls-2" x="322.97" y="122.53" width="69.46" height="116.63" rx="22.24" ry="22.24" transform="translate(-22.85 54.99) rotate(-8.52)"/>
        <path class="cls-2" d="M422.25,230.14l-24.71,3.7c-12.15,1.82-23.47-6.55-25.29-18.7l-4.57-30.47c-9.01-1.73-16.37-8.96-17.81-18.55l-3.02-20.13c-1.82-12.15,6.55-23.47,18.7-25.29l53.25-7.98c12.15-1.82,23.47,6.55,25.29,18.7l3.02,20.13c1.39,9.27-3.16,18.05-10.78,22.51l4.61,30.79c1.82,12.15-6.55,23.47-18.7,25.29Z"/>
        <path class="cls-2" d="M487.96,220.3l-24.71,3.7c-12.15,1.82-23.47-6.55-25.29-18.7l-10.69-71.36c-1.82-12.15,6.55-23.47,18.7-25.29l28.01-4.2c11.34-1.7,26.01-2.74,38.94,4.35,12.51,6.86,20.21,19.4,22.89,37.3,2.66,17.78-.89,32.03-10.57,42.37-3.38,3.61-8.66,8.2-18.42,11.82-.89,9.99-8.5,18.45-18.86,20ZM474.55,149.35l1.86,12.42c.87-.24,1.77-.44,2.69-.57l-1.84-12.25-2.72.41Z"/>
        <path class="cls-2" d="M560.48,210.85c-18.09,2.71-32.99-.51-44.29-9.57-10.98-8.8-17.69-22.25-20.52-41.1-2.83-18.87-.4-33.66,7.41-45.23,8.11-12.01,21.47-19.48,39.71-22.21s33.2.5,44.47,9.6c10.86,8.77,17.51,22.2,20.34,41.07,2.83,18.87.4,33.66-7.41,45.23-8.11,12.01-21.47,19.48-39.71,22.21ZM541.55,153.27c2.98,2.41,7.1,4.03,10.83,3.47,3.76-.56,7.27-3.32,9.44-6.48-2.99-2.38-7.16-3.99-10.92-3.43s-7.19,3.29-9.35,6.43Z"/>
        <path class="cls-2" d="M623.86,199.94l-24.71,3.7c-12.15,1.82-23.47-6.55-25.29-18.7l-10.69-71.36c-1.82-12.15,6.55-23.47,18.7-25.29l28.01-4.2c11.34-1.7,26.01-2.74,38.94,4.35,12.51,6.86,20.21,19.4,22.89,37.3,2.66,17.78-.89,32.03-10.57,42.37-3.38,3.61-8.66,8.2-18.42,11.82-.89,9.99-8.5,18.45-18.86,20ZM610.45,128.99l1.86,12.42c.87-.24,1.77-.44,2.69-.57l-1.84-12.25-2.72.41Z"/>
      </g>
      <g>
        <path class="cls-2" d="M145.5,354.86l-24.71,3.7c-2.04.3-4.05.32-6,.09-.48.11-.97.2-1.46.27l-20.66,3.1c-.46.07-.93.12-1.39.16-1.79.79-3.71,1.36-5.74,1.67l-24.71,3.7c-12.15,1.82-23.47-6.55-25.29-18.7l-10.69-71.36c-1.82-12.15,6.55-23.47,18.7-25.29l36.74-5.5c1.73-.26,3.46-.31,5.15-.17,1.57-.63,3.24-1.08,4.97-1.34l37.81-5.66c12.15-1.82,23.47,6.55,25.29,18.7l10.69,71.36c1.82,12.15-6.55,23.47-18.7,25.29Z"/>
        <path class="cls-2" d="M217.39,344.09l-24.92,3.73c-3.57.54-7.12.19-10.37-.91-2.79,2-6.07,3.37-9.65,3.91l-24.28,3.64c-6.67,1-13.42-1.08-18.38-5.65-4.95-4.57-7.56-11.14-7.1-17.87l5.07-73.72c.72-10.41,8.57-18.92,18.89-20.46l37.38-5.6c10.28-1.54,20.26,4.25,24.02,13.94l26.77,68.95c2.45,6.3,1.89,13.37-1.5,19.21-3.39,5.84-9.26,9.83-15.94,10.83Z"/>
        <path class="cls-2" d="M282.47,334.34l-24.81,3.72c-2.24.34-4.47.32-6.64,0-1.96.94-4.09,1.61-6.36,1.95l-24.71,3.7c-12.15,1.82-23.47-6.55-25.29-18.7l-10.69-71.36c-1.82-12.15,6.55-23.47,18.7-25.29l24.71-3.7c2.13-.32,4.23-.32,6.26-.05,1.87-.86,3.88-1.47,5.99-1.78l24.5-3.67c7.06-1.06,14.19,1.34,19.19,6.44,4.99,5.1,7.23,12.29,6.02,19.32l-4.97,28.89,14.58,28.37c3.28,6.37,3.28,13.93.01,20.31-3.27,6.38-9.41,10.79-16.49,11.85Z"/>
        <path class="cls-2" d="M338.28,325.98l-53.46,8.01c-12.15,1.82-23.47-6.55-25.29-18.7l-10.69-71.36c-1.82-12.15,6.55-23.47,18.7-25.29l53.46-8.01c12.15-1.82,23.47,6.55,25.29,18.7l2.95,19.7c.91,6.05-.71,11.89-4.07,16.46l.14.95c4.55,3.38,7.81,8.49,8.71,14.54l2.95,19.7c1.82,12.15-6.55,23.47-18.7,25.29Z"/>
        <rect class="cls-2" x="335.17" y="203.96" width="69.46" height="116.62" rx="22.24" ry="22.24" transform="translate(-34.78 57.7) rotate(-8.52)"/>
        <path class="cls-2" d="M434.45,311.57l-24.71,3.7c-12.15,1.82-23.47-6.55-25.29-18.7l-4.57-30.47c-9.01-1.73-16.37-8.96-17.81-18.55l-3.02-20.13c-1.82-12.15,6.55-23.47,18.7-25.29l53.25-7.98c12.15-1.82,23.47,6.55,25.29,18.7l3.02,20.13c1.39,9.27-3.16,18.05-10.78,22.51l4.61,30.79c1.82,12.15-6.55,23.47-18.7,25.29Z"/>
        <path class="cls-2" d="M500.16,301.72l-24.71,3.7c-12.15,1.82-23.47-6.55-25.29-18.7l-10.69-71.36c-1.82-12.15,6.55-23.47,18.7-25.29l28.01-4.2c11.34-1.7,26.01-2.74,38.94,4.35,12.51,6.86,20.21,19.4,22.89,37.3,2.66,17.78-.89,32.03-10.57,42.37-3.38,3.61-8.66,8.2-18.42,11.82-.89,9.99-8.5,18.45-18.86,20ZM486.75,230.78l1.86,12.42c.87-.24,1.77-.44,2.69-.57l-1.84-12.25-2.72.41Z"/>
        <path class="cls-2" d="M572.68,292.28c-18.09,2.71-32.99-.51-44.29-9.57-10.98-8.8-17.7-22.25-20.52-41.1-2.83-18.87-.4-33.66,7.41-45.23,8.11-12.01,21.47-19.48,39.71-22.21,18.24-2.73,33.2.5,44.47,9.6,10.86,8.77,17.51,22.2,20.34,41.07,2.83,18.87.4,33.66-7.41,45.23-8.11,12.01-21.47,19.48-39.71,22.21ZM553.75,234.7c2.98,2.41,7.1,4.03,10.83,3.47s7.27-3.32,9.44-6.48c-2.99-2.38-7.16-3.99-10.92-3.43s-7.19,3.29-9.35,6.43Z"/>
        <path class="cls-2" d="M636.06,281.37l-24.71,3.7c-12.15,1.82-23.47-6.55-25.29-18.7l-10.69-71.36c-1.82-12.15,6.55-23.47,18.7-25.29l28.01-4.2c11.34-1.7,26.01-2.74,38.94,4.35,12.51,6.86,20.21,19.4,22.89,37.3,2.66,17.78-.89,32.03-10.57,42.37-3.38,3.61-8.66,8.2-18.42,11.82-.89,9.99-8.5,18.45-18.86,20ZM622.65,210.42l1.86,12.42c.87-.24,1.77-.44,2.69-.57l-1.84-12.25-2.72.41Z"/>
      </g>
      <g>
        <path class="cls-1" d="M22.24,109.91l36.74-5.5,9.62,26.43.5-27.95,37.81-5.66,10.69,71.36-24.71,3.7-5.5-36.74-1.17.18-.78,36.92-20.66,3.1-11.46-35.09-1.17.18,5.5,36.74-24.71,3.7-10.69-71.36Z"/>
        <path class="cls-1" d="M125.33,94.46l37.38-5.6,26.77,68.95-24.92,3.73-3.25-7.9-16.3,2.44-.48,8.46-24.28,3.64,5.07-73.72ZM155.93,135.18l-7.57-24.35-2.66.4-.31,25.53,10.54-1.58Z"/>
        <path class="cls-1" d="M181.36,86.07l24.71-3.7,3.78,25.24,4.26-.64,4.21-26.44,24.5-3.67-6.23,36.21,17.98,34.98-24.81,3.72-12.18-22.46-4.37.65,3.56,23.75-24.71,3.7-10.69-71.36Z"/>
        <path class="cls-1" d="M246.22,76.35l53.46-8.01,2.95,19.7-28.76,4.31.91,6.07,22.36-3.35,2.92,19.49-22.36,3.35.96,6.39,28.76-4.31,2.95,19.7-53.46,8.01-10.69-71.36Z"/>
        <path class="cls-1" d="M327.58,64.16l24.71-3.7,10.69,71.36-24.71,3.7-10.69-71.36Z"/>
        <path class="cls-1" d="M374.16,77.76l-14.7,2.2-3.02-20.13,53.25-7.98,3.02,20.13-13.85,2.07,7.67,51.23-24.71,3.7-7.67-51.23Z"/>
        <path class="cls-1" d="M436.85,47.79l28.01-4.2c21.19-3.18,33.17.47,36.54,22.95,3.37,22.47-6.82,30.1-28.12,33.29l-3.3.49,2.27,15.12-24.71,3.7-10.69-71.36ZM469.3,80.5c6.07-.91,8.17-3.62,7.2-10.12-1.02-6.82-3.6-8.06-9.78-7.14l-2.24.34,2.58,17.25,2.24-.34Z"/>
        <path class="cls-1" d="M505.25,74.02c-3.89-25.99,4.67-38.59,28.42-42.15,23.75-3.56,35.63,5.99,39.53,31.97,3.89,25.99-4.67,38.59-28.42,42.15-23.43,3.51-35.63-5.99-39.53-31.97ZM548.28,67.58c-1.64-10.97-3.4-16.91-11.61-15.68s-8.14,7.43-6.5,18.4,3.72,16.86,11.61,15.68,8.13-7.53,6.5-18.4Z"/>
        <path class="cls-1" d="M572.75,27.43l28.01-4.2c21.19-3.18,33.17.47,36.54,22.95s-6.82,30.1-28.12,33.29l-3.3.49,2.27,15.12-24.71,3.7-10.69-71.36ZM605.2,60.14c6.07-.91,8.17-3.62,7.2-10.12-1.02-6.82-3.6-8.06-9.78-7.14l-2.24.34,2.58,17.25,2.24-.34Z"/>
      </g>
      <g>
        <path class="cls-1" d="M34.65,192.76l36.74-5.5,9.62,26.43.5-27.95,37.81-5.66,10.69,71.36-24.71,3.7-5.5-36.74-1.17.18-.78,36.92-20.66,3.1-11.46-35.09-1.17.18,5.5,36.74-24.71,3.7-10.69-71.36Z"/>
        <path class="cls-1" d="M137.75,177.32l37.38-5.6,26.77,68.95-24.92,3.73-3.25-7.9-16.3,2.44-.48,8.46-24.28,3.64,5.07-73.72ZM168.35,218.03l-7.57-24.35-2.66.4-.31,25.53,10.54-1.58Z"/>
        <path class="cls-1" d="M193.77,168.93l24.71-3.7,3.78,25.24,4.26-.64,4.21-26.44,24.5-3.67-6.23,36.21,17.98,34.98-24.81,3.72-12.18-22.46-4.37.65,3.56,23.75-24.71,3.7-10.69-71.36Z"/>
        <path class="cls-1" d="M258.63,159.21l53.46-8.01,2.95,19.7-28.76,4.31.91,6.07,22.36-3.35,2.92,19.49-22.36,3.35.96,6.39,28.76-4.31,2.95,19.7-53.46,8.01-10.69-71.36Z"/>
        <path class="cls-1" d="M340,147.02l24.71-3.7,10.69,71.36-24.71,3.7-10.69-71.36Z"/>
        <path class="cls-1" d="M386.57,160.62l-14.7,2.2-3.02-20.13,53.25-7.98,3.02,20.13-13.85,2.07,7.67,51.23-24.71,3.7-7.67-51.23Z"/>
        <path class="cls-1" d="M449.27,130.65l28.01-4.2c21.19-3.18,33.17.48,36.54,22.95,3.37,22.47-6.82,30.1-28.12,33.29l-3.3.49,2.27,15.12-24.71,3.7-10.69-71.36ZM481.72,163.36c6.07-.91,8.17-3.62,7.2-10.12-1.02-6.82-3.6-8.06-9.78-7.14l-2.24.34,2.58,17.25,2.24-.34Z"/>
        <path class="cls-1" d="M517.66,156.88c-3.89-25.99,4.67-38.59,28.42-42.15,23.75-3.56,35.63,5.99,39.53,31.97s-4.67,38.59-28.42,42.15c-23.43,3.51-35.63-5.99-39.53-31.97ZM560.69,150.44c-1.64-10.97-3.4-16.91-11.61-15.68-7.88,1.18-8.14,7.43-6.5,18.4,1.64,10.97,3.72,16.86,11.61,15.68,8.09-1.21,8.13-7.53,6.5-18.4Z"/>
        <path class="cls-1" d="M585.17,110.29l28.01-4.2c21.19-3.18,33.17.48,36.54,22.95,3.37,22.47-6.82,30.1-28.12,33.29l-3.3.49,2.27,15.12-24.71,3.7-10.69-71.36ZM617.62,143c6.07-.91,8.17-3.62,7.2-10.12-1.02-6.82-3.6-8.06-9.78-7.14l-2.24.34,2.58,17.25,2.24-.34Z"/>
      </g>
      <g>
        <path class="cls-1" d="M46.85,274.19l36.74-5.5,9.62,26.43.5-27.95,37.81-5.66,10.69,71.36-24.71,3.7-5.5-36.74-1.17.18-.78,36.92-20.66,3.1-11.46-35.09-1.17.18,5.5,36.74-24.71,3.7-10.69-71.36Z"/>
        <path class="cls-1" d="M149.95,258.75l37.38-5.6,26.77,68.95-24.92,3.73-3.25-7.9-16.3,2.44-.48,8.46-24.28,3.64,5.07-73.72ZM180.55,299.46l-7.57-24.35-2.66.4-.31,25.53,10.54-1.58Z"/>
        <path class="cls-1" d="M205.97,250.36l24.71-3.7,3.78,25.24,4.26-.64,4.21-26.44,24.5-3.67-6.23,36.21,17.98,34.98-24.81,3.72-12.18-22.46-4.37.65,3.56,23.75-24.71,3.7-10.69-71.36Z"/>
        <path class="cls-1" d="M270.83,240.64l53.46-8.01,2.95,19.7-28.76,4.31.91,6.07,22.36-3.35,2.92,19.49-22.36,3.35.96,6.39,28.76-4.31,2.95,19.7-53.46,8.01-10.69-71.36Z"/>
        <path class="cls-1" d="M352.2,228.45l24.71-3.7,10.69,71.36-24.71,3.7-10.69-71.36Z"/>
        <path class="cls-1" d="M398.77,242.05l-14.7,2.2-3.02-20.13,53.25-7.98,3.02,20.13-13.85,2.07,7.67,51.23-24.71,3.7-7.67-51.23Z"/>
        <path class="cls-1" d="M461.47,212.08l28.01-4.2c21.19-3.18,33.17.47,36.54,22.95,3.37,22.47-6.82,30.1-28.12,33.29l-3.3.49,2.27,15.12-24.71,3.7-10.69-71.36ZM493.92,244.79c6.07-.91,8.17-3.62,7.2-10.12-1.02-6.82-3.6-8.06-9.78-7.14l-2.24.34,2.58,17.25,2.24-.34Z"/>
        <path class="cls-1" d="M529.86,238.31c-3.89-25.99,4.67-38.59,28.42-42.15,23.75-3.56,35.63,5.99,39.53,31.97,3.89,25.99-4.67,38.59-28.42,42.15-23.43,3.51-35.63-5.99-39.53-31.97ZM572.89,231.87c-1.64-10.97-3.4-16.91-11.61-15.68s-8.14,7.43-6.5,18.4c1.64,10.97,3.72,16.86,11.61,15.68s8.13-7.53,6.5-18.4Z"/>
        <path class="cls-1" d="M597.37,191.72l28.01-4.2c21.19-3.18,33.17.47,36.54,22.95,3.37,22.47-6.82,30.1-28.12,33.29l-3.3.49,2.27,15.12-24.71,3.7-10.69-71.36ZM629.82,224.43c6.07-.91,8.17-3.62,7.2-10.12-1.02-6.82-3.6-8.06-9.78-7.14l-2.24.34,2.58,17.25,2.24-.34Z"/>
      </g>
    </g>
  </g>
</svg>
